<svg width="248" height="335" viewBox="0 0 248 335" fill="none" xmlns="http://www.w3.org/2000/svg">
<path d="M51.5343 14.6175V204.881" stroke="white" stroke-width="27.5452" stroke-linecap="round"/>
<mask id="path-2-inside-1" fill="white">
<path d="M177.435 155.187C180.501 150.3 179.847 143.861 175.478 140.094C166.09 132.001 157.093 127.341 143.355 124.608C126.181 121.192 108.38 122.945 92.2024 129.646C76.0248 136.347 62.1977 147.695 52.4694 162.254C42.7412 176.814 37.5487 193.931 37.5487 211.441C37.5487 228.952 42.7412 246.069 52.4694 260.628C62.1977 275.187 76.0248 286.535 92.2024 293.236C108.38 299.937 126.181 301.69 143.355 298.274C157.08 295.544 166.073 291.049 175.451 283.034C179.849 279.274 180.519 272.82 177.469 267.902V267.902C173.236 261.077 163.704 260.067 156.765 264.11C150.969 267.486 144.624 269.901 137.974 271.224C126.151 273.576 113.895 272.369 102.757 267.755C91.619 263.142 82.0993 255.329 75.4016 245.305C68.7039 235.281 65.1291 223.497 65.1291 211.441C65.1291 199.386 68.7039 187.601 75.4016 177.577C82.0993 167.553 91.619 159.741 102.757 155.127C113.895 150.514 126.151 149.307 137.974 151.658C144.688 152.994 151.091 155.442 156.932 158.87C163.787 162.893 173.211 161.92 177.435 155.187V155.187Z"/>
</mask>
<path d="M143.355 124.608L136.907 157.027L143.355 124.608ZM137.974 271.224L131.526 238.805L137.974 271.224ZM156.932 158.87L140.203 187.378L156.932 158.87ZM156.765 264.11L140.127 235.549L156.765 264.11ZM175.451 283.034L196.926 308.161L175.451 283.034ZM175.478 140.094L153.895 165.129L175.478 140.094ZM197.06 115.059C183.408 103.289 169.214 96.0499 149.804 92.189L136.907 157.027C144.973 158.632 148.772 160.713 153.895 165.129L197.06 115.059ZM149.804 92.189C126.218 87.4975 101.77 89.9053 79.5531 99.1081L104.852 160.184C114.989 155.985 126.144 154.886 136.907 157.027L149.804 92.189ZM79.5531 99.1081C57.3357 108.311 38.3462 123.895 24.9858 143.89L79.953 180.618C86.0492 171.494 94.714 164.383 104.852 160.184L79.5531 99.1081ZM24.9858 143.89C11.6255 163.885 4.4945 187.393 4.4945 211.441H70.6029C70.6029 200.468 73.8568 189.742 79.953 180.618L24.9858 143.89ZM4.4945 211.441C4.4945 235.489 11.6255 258.997 24.9858 278.992L79.953 242.264C73.8568 233.141 70.6029 222.414 70.6029 211.441H4.4945ZM24.9858 278.992C38.3462 298.987 57.3357 314.571 79.5531 323.774L104.852 262.698C94.714 258.499 86.0492 251.388 79.953 242.264L24.9858 278.992ZM79.5531 323.774C101.77 332.977 126.218 335.385 149.804 330.693L136.907 265.855C126.144 267.996 114.989 266.897 104.852 262.698L79.5531 323.774ZM149.804 330.693C168.9 326.895 183.109 319.97 196.926 308.161L153.975 257.906C149.036 262.128 145.261 264.193 136.907 265.855L149.804 330.693ZM140.127 235.549C137.473 237.094 134.569 238.199 131.526 238.805L144.423 303.643C154.678 301.603 164.464 297.879 173.403 292.671L140.127 235.549ZM131.526 238.805C126.114 239.881 120.504 239.329 115.406 237.217L90.1076 298.293C107.285 305.409 126.187 307.27 144.423 303.643L131.526 238.805ZM115.406 237.217C110.308 235.105 105.951 231.529 102.885 226.941L47.9181 263.669C58.2478 279.129 72.9299 291.178 90.1076 298.293L115.406 237.217ZM102.885 226.941C99.8196 222.353 98.1833 216.959 98.1833 211.441L32.0748 211.441C32.0748 230.034 37.5883 248.21 47.9181 263.669L102.885 226.941ZM98.1833 211.441C98.1833 205.923 99.8196 200.529 102.885 195.941L47.9181 159.213C37.5883 174.673 32.0748 192.848 32.0748 211.441L98.1833 211.441ZM102.885 195.941C105.951 191.353 110.308 187.777 115.406 185.665L90.1076 124.589C72.9299 131.704 58.2478 143.753 47.9181 159.213L102.885 195.941ZM115.406 185.665C120.504 183.554 126.114 183.001 131.526 184.078L144.423 119.239C126.187 115.612 107.285 117.474 90.1076 124.589L115.406 185.665ZM131.526 184.078C134.599 184.689 137.529 185.809 140.203 187.378L173.66 130.361C164.652 125.076 154.777 121.299 144.423 119.239L131.526 184.078ZM140.203 187.378C157.745 197.672 189.045 198.88 205.436 172.752L149.434 137.622C153.179 131.653 158.885 129.055 163.089 128.401C166.995 127.793 170.615 128.575 173.66 130.361L140.203 187.378ZM205.56 250.482C189.215 224.125 157.733 225.292 140.127 235.549L173.403 292.671C170.388 294.428 166.81 295.189 162.948 294.576C158.784 293.914 153.091 291.311 149.378 285.323L205.56 250.482ZM196.926 308.161C215.05 292.671 216.265 267.744 205.56 250.482L149.378 285.323C144.772 277.896 144.649 265.877 153.975 257.906L196.926 308.161ZM153.895 165.129C144.647 157.157 144.726 145.127 149.434 137.622L205.436 172.752C216.276 155.472 215.047 130.566 197.06 115.059L153.895 165.129Z" fill="white" mask="url(#path-2-inside-1)"/>
</svg>
