<svg width="1153" height="365" viewBox="0 0 1153 365" fill="none" xmlns="http://www.w3.org/2000/svg">
<path d="M287.183 125.625H335.162V143.777H264.588V34.1129H287.183V125.625ZM406.326 143.777C405.322 141.819 404.593 139.384 404.142 136.471C398.869 142.346 392.015 145.284 383.58 145.284C375.596 145.284 368.968 142.974 363.695 138.354C358.473 133.735 355.862 127.91 355.862 120.88C355.862 112.244 359.051 105.616 365.428 100.996C371.855 96.3765 381.119 94.0416 393.22 93.9914H403.238V89.3216C403.238 85.5557 402.259 82.5429 400.3 80.2834C398.392 78.0238 395.354 76.894 391.187 76.894C387.521 76.894 384.634 77.7727 382.525 79.5302C380.466 81.2876 379.437 83.6978 379.437 86.7608H357.67C357.67 82.0408 359.126 77.6723 362.038 73.6553C364.951 69.6383 369.068 66.5 374.391 64.2404C379.713 61.9307 385.688 60.7758 392.316 60.7758C402.359 60.7758 410.318 63.3115 416.193 68.383C422.118 73.4042 425.08 80.4842 425.08 89.6229V124.947C425.13 132.68 426.21 138.53 428.319 142.497V143.777H406.326ZM388.325 128.638C391.538 128.638 394.501 127.935 397.212 126.529C399.924 125.073 401.932 123.14 403.238 120.73V106.72H395.103C384.207 106.72 378.408 110.486 377.705 118.018L377.629 119.299C377.629 122.01 378.583 124.244 380.491 126.002C382.4 127.759 385.011 128.638 388.325 128.638ZM525.016 114.177L535.712 62.2822H556.726L535.938 143.777H517.71L502.27 92.485L486.83 143.777H468.678L447.89 62.2822H468.904L479.524 114.102L494.437 62.2822H510.178L525.016 114.177ZM350.677 288.248C349.824 300.047 345.455 309.337 337.572 316.115C329.739 322.894 319.395 326.284 306.54 326.284C292.481 326.284 281.409 321.564 273.325 312.124C265.291 302.633 261.274 289.628 261.274 273.108V266.405C261.274 255.86 263.132 246.571 266.847 238.537C270.563 230.503 275.86 224.352 282.74 220.084C289.669 215.766 297.703 213.607 306.842 213.607C319.495 213.607 329.688 216.996 337.421 223.775C345.154 230.553 349.623 240.069 350.828 252.32H328.232C327.68 245.24 325.696 240.119 322.282 236.955C318.918 233.742 313.771 232.135 306.842 232.135C299.31 232.135 293.661 234.846 289.895 240.269C286.179 245.642 284.271 254.003 284.171 265.351V273.636C284.171 285.486 285.953 294.147 289.518 299.621C293.134 305.094 298.808 307.83 306.54 307.83C313.52 307.83 318.717 306.249 322.131 303.085C325.596 299.872 327.579 294.926 328.082 288.248H350.677ZM373.035 283.276C373.035 275.192 374.591 267.987 377.705 261.66C380.818 255.333 385.287 250.437 391.111 246.973C396.986 243.508 403.79 241.776 411.523 241.776C422.519 241.776 431.482 245.14 438.412 251.869C445.391 258.597 449.283 267.736 450.086 279.285L450.237 284.858C450.237 297.361 446.747 307.404 439.767 314.986C432.788 322.518 423.423 326.284 411.673 326.284C399.924 326.284 390.534 322.518 383.504 314.986C376.525 307.454 373.035 297.21 373.035 284.256V283.276ZM394.802 284.858C394.802 292.591 396.258 298.516 399.171 302.633C402.083 306.701 406.25 308.734 411.673 308.734C416.946 308.734 421.063 306.726 424.026 302.709C426.988 298.642 428.47 292.164 428.47 283.276C428.47 275.694 426.988 269.82 424.026 265.652C421.063 261.484 416.896 259.4 411.523 259.4C406.2 259.4 402.083 261.484 399.171 265.652C396.258 269.769 394.802 276.171 394.802 284.858ZM496.395 243.282L497.073 252.396C502.847 245.316 510.655 241.776 520.497 241.776C530.992 241.776 538.197 245.918 542.114 254.203C547.838 245.918 555.997 241.776 566.592 241.776C575.43 241.776 582.008 244.362 586.326 249.534C590.644 254.655 592.803 262.388 592.803 272.732V324.777H570.961V272.807C570.961 268.188 570.057 264.823 568.249 262.714C566.442 260.555 563.253 259.476 558.684 259.476C552.156 259.476 547.637 262.589 545.126 268.815L545.202 324.777H523.435V272.882C523.435 268.162 522.506 264.748 520.648 262.639C518.79 260.53 515.627 259.476 511.158 259.476C504.981 259.476 500.513 262.037 497.751 267.158V324.777H475.984V243.282H496.395ZM642.351 243.282L643.029 252.396C648.803 245.316 656.611 241.776 666.453 241.776C676.947 241.776 684.153 245.918 688.07 254.203C693.794 245.918 701.953 241.776 712.548 241.776C721.386 241.776 727.963 244.362 732.282 249.534C736.6 254.655 738.759 262.388 738.759 272.732V324.777H716.917V272.807C716.917 268.188 716.013 264.823 714.205 262.714C712.398 260.555 709.209 259.476 704.64 259.476C698.112 259.476 693.593 262.589 691.082 268.815L691.158 324.777H669.39V272.882C669.39 268.162 668.462 264.748 666.604 262.639C664.746 260.53 661.582 259.476 657.114 259.476C650.937 259.476 646.468 262.037 643.707 267.158V324.777H621.94V243.282H642.351ZM816.702 316.492C811.329 323.02 803.898 326.284 794.408 326.284C785.671 326.284 778.992 323.773 774.373 318.752C769.804 313.73 767.469 306.374 767.368 296.683V243.282H789.135V295.93C789.135 304.416 793.002 308.659 800.735 308.659C808.116 308.659 813.187 306.098 815.949 300.976V243.282H837.791V324.777H817.305L816.702 316.492ZM886.586 243.282L887.264 252.697C893.089 245.416 900.897 241.776 910.688 241.776C919.325 241.776 925.752 244.312 929.97 249.383C934.188 254.454 936.347 262.037 936.447 272.129V324.777H914.68V272.657C914.68 268.037 913.676 264.698 911.667 262.639C909.659 260.53 906.32 259.476 901.65 259.476C895.524 259.476 890.929 262.087 887.866 267.309V324.777H866.099V243.282H886.586ZM988.33 324.777H966.487V243.282H988.33V324.777ZM965.207 222.193C965.207 218.929 966.286 216.243 968.446 214.134C970.655 212.025 973.643 210.97 977.408 210.97C981.124 210.97 984.087 212.025 986.296 214.134C988.505 216.243 989.61 218.929 989.61 222.193C989.61 225.507 988.48 228.218 986.221 230.327C984.011 232.436 981.074 233.491 977.408 233.491C973.743 233.491 970.78 232.436 968.521 230.327C966.311 228.218 965.207 225.507 965.207 222.193ZM1044.73 223.247V243.282H1058.67V259.25H1044.73V299.922C1044.73 302.935 1045.31 305.094 1046.46 306.399C1047.62 307.705 1049.83 308.358 1053.09 308.358C1055.5 308.358 1057.64 308.182 1059.49 307.83V324.325C1055.23 325.631 1050.83 326.284 1046.31 326.284C1031.05 326.284 1023.27 318.576 1022.96 303.161V259.25H1011.06V243.282H1022.96V223.247H1044.73ZM1113.56 293.972L1128.62 243.282H1151.97L1119.21 337.431L1117.4 341.724C1112.53 352.369 1104.5 357.692 1093.3 357.692C1090.14 357.692 1086.92 357.214 1083.66 356.26V339.766L1086.97 339.841C1091.09 339.841 1094.15 339.213 1096.16 337.958C1098.22 336.703 1099.83 334.619 1100.98 331.706L1103.54 325.003L1075 243.282H1098.42L1113.56 293.972Z" fill="#07011E"/>
<path d="M50.6577 44.8495V235.113" stroke="#07011E" stroke-width="27.5452" stroke-linecap="round"/>
<mask id="path-3-inside-1" fill="white">
<path d="M176.558 185.419C179.624 180.531 178.971 174.093 174.601 170.326C165.213 162.233 156.217 157.573 142.478 154.84C125.304 151.424 107.503 153.177 91.3257 159.878C75.1482 166.579 61.321 177.927 51.5927 192.486C41.8645 207.045 36.672 224.163 36.672 241.673C36.672 259.184 41.8645 276.301 51.5927 290.86C61.321 305.419 75.1482 316.767 91.3257 323.468C107.503 330.169 125.304 331.922 142.478 328.506C156.204 325.776 165.196 321.281 174.574 313.266C178.973 309.506 179.642 303.052 176.592 298.134V298.134C172.36 291.309 162.828 290.299 155.888 294.342C150.092 297.718 143.747 300.133 137.098 301.456C125.274 303.808 113.018 302.601 101.88 297.987C90.7424 293.374 81.2227 285.561 74.525 275.537C67.8273 265.513 64.2524 253.729 64.2524 241.673C64.2524 229.618 67.8273 217.833 74.525 207.809C81.2227 197.785 90.7424 189.973 101.88 185.359C113.018 180.746 125.274 179.539 137.098 181.89C143.811 183.226 150.214 185.674 156.055 189.102C162.91 193.125 172.335 192.152 176.558 185.419V185.419Z"/>
</mask>
<path d="M142.478 154.84L136.03 187.259L142.478 154.84ZM137.098 301.456L130.649 269.037L137.098 301.456ZM156.055 189.102L139.326 217.61L156.055 189.102ZM155.888 294.342L139.25 265.78L155.888 294.342ZM174.574 313.266L196.05 338.393L174.574 313.266ZM174.601 170.326L153.018 195.361L174.601 170.326ZM196.184 145.291C182.531 133.521 168.337 126.282 148.927 122.421L136.03 187.259C144.096 188.864 147.895 190.945 153.018 195.361L196.184 145.291ZM148.927 122.421C125.341 117.729 100.894 120.137 78.6764 129.34L103.975 190.416C114.113 186.217 125.268 185.118 136.03 187.259L148.927 122.421ZM78.6764 129.34C56.459 138.543 37.4695 154.127 24.1092 174.122L79.0763 210.85C85.1725 201.726 93.8373 194.615 103.975 190.416L78.6764 129.34ZM24.1092 174.122C10.7489 194.117 3.61782 217.625 3.61782 241.673H69.7263C69.7263 230.7 72.9801 219.974 79.0763 210.85L24.1092 174.122ZM3.61782 241.673C3.61782 265.721 10.7489 289.229 24.1092 309.224L79.0763 272.496C72.9801 263.372 69.7263 252.646 69.7263 241.673H3.61782ZM24.1092 309.224C37.4695 329.219 56.459 344.803 78.6764 354.006L103.975 292.93C93.8373 288.731 85.1725 281.62 79.0763 272.496L24.1092 309.224ZM78.6764 354.006C100.894 363.209 125.341 365.617 148.927 360.925L136.03 296.087C125.268 298.228 114.113 297.129 103.975 292.93L78.6764 354.006ZM148.927 360.925C168.023 357.127 182.232 350.202 196.05 338.393L153.098 288.138C148.16 292.359 144.384 294.425 136.03 296.087L148.927 360.925ZM139.25 265.78C136.596 267.326 133.693 268.431 130.649 269.037L143.546 333.875C153.802 331.835 163.587 328.11 172.526 322.903L139.25 265.78ZM130.649 269.037C125.237 270.113 119.628 269.561 114.53 267.449L89.2309 328.525C106.409 335.64 125.311 337.502 143.546 333.875L130.649 269.037ZM114.53 267.449C109.432 265.337 105.074 261.761 102.009 257.173L47.0414 293.901C57.3711 309.361 72.0532 321.41 89.2309 328.525L114.53 267.449ZM102.009 257.173C98.9429 252.585 97.3066 247.191 97.3066 241.673L31.1982 241.673C31.1982 260.266 36.7116 278.442 47.0414 293.901L102.009 257.173ZM97.3066 241.673C97.3066 236.155 98.9429 230.761 102.009 226.173L47.0414 189.445C36.7116 204.905 31.1982 223.08 31.1982 241.673L97.3066 241.673ZM102.009 226.173C105.074 221.585 109.432 218.009 114.53 215.897L89.2309 154.821C72.0532 161.936 57.3711 173.985 47.0414 189.445L102.009 226.173ZM114.53 215.897C119.628 213.786 125.237 213.233 130.649 214.31L143.546 149.471C125.311 145.844 106.409 147.706 89.2309 154.821L114.53 215.897ZM130.649 214.31C133.722 214.921 136.652 216.041 139.326 217.61L172.784 160.593C163.776 155.308 153.9 151.531 143.546 149.471L130.649 214.31ZM139.326 217.61C156.868 227.904 188.169 229.112 204.559 202.984L148.558 167.854C152.302 161.885 158.008 159.287 162.213 158.633C166.118 158.025 169.739 158.807 172.784 160.593L139.326 217.61ZM204.684 280.714C188.339 254.357 156.856 255.524 139.25 265.78L172.526 322.903C169.511 324.66 165.934 325.421 162.071 324.808C157.907 324.146 152.215 321.543 148.501 315.555L204.684 280.714ZM196.05 338.393C214.173 322.903 215.389 297.976 204.684 280.714L148.501 315.555C143.895 308.128 143.772 296.109 153.098 288.138L196.05 338.393ZM153.018 195.361C143.77 187.389 143.849 175.359 148.558 167.854L204.559 202.984C215.4 185.704 214.171 160.798 196.184 145.291L153.018 195.361Z" fill="#07011E" mask="url(#path-3-inside-1)"/>
</svg>
