<svg width="248" height="334" viewBox="0 0 248 334" fill="none" xmlns="http://www.w3.org/2000/svg">
<path d="M51.5343 13.8495V204.113" stroke="#07011E" stroke-width="27.5452" stroke-linecap="round"/>
<mask id="path-2-inside-1" fill="white">
<path d="M177.435 154.419C180.501 149.531 179.847 143.093 175.478 139.326C166.09 131.233 157.093 126.573 143.355 123.84C126.181 120.424 108.38 122.177 92.2024 128.878C76.0248 135.579 62.1977 146.927 52.4694 161.486C42.7412 176.045 37.5487 193.163 37.5487 210.673C37.5487 228.184 42.7412 245.301 52.4694 259.86C62.1977 274.419 76.0248 285.767 92.2024 292.468C108.38 299.169 126.181 300.922 143.355 297.506C157.08 294.776 166.073 290.281 175.451 282.266C179.849 278.506 180.519 272.052 177.469 267.134V267.134C173.236 260.309 163.704 259.299 156.765 263.342C150.969 266.718 144.624 269.133 137.974 270.456C126.151 272.808 113.895 271.601 102.757 266.987C91.619 262.374 82.0993 254.561 75.4016 244.537C68.7039 234.513 65.1291 222.729 65.1291 210.673C65.1291 198.618 68.7039 186.833 75.4016 176.809C82.0993 166.785 91.619 158.973 102.757 154.359C113.895 149.746 126.151 148.539 137.974 150.89C144.688 152.226 151.091 154.674 156.932 158.102C163.787 162.125 173.211 161.152 177.435 154.419V154.419Z"/>
</mask>
<path d="M143.355 123.84L136.907 156.259L143.355 123.84ZM137.974 270.456L131.526 238.037L137.974 270.456ZM156.932 158.102L140.203 186.61L156.932 158.102ZM156.765 263.342L140.127 234.78L156.765 263.342ZM175.451 282.266L196.926 307.393L175.451 282.266ZM175.478 139.326L153.895 164.361L175.478 139.326ZM197.06 114.291C183.408 102.521 169.214 95.2819 149.804 91.4209L136.907 156.259C144.973 157.864 148.772 159.945 153.895 164.361L197.06 114.291ZM149.804 91.4209C126.218 86.7294 101.77 89.1373 79.5531 98.34L104.852 159.416C114.989 155.217 126.144 154.118 136.907 156.259L149.804 91.4209ZM79.5531 98.34C57.3357 107.543 38.3462 123.127 24.9858 143.122L79.953 179.85C86.0492 170.726 94.714 163.615 104.852 159.416L79.5531 98.34ZM24.9858 143.122C11.6255 163.117 4.4945 186.625 4.4945 210.673H70.6029C70.6029 199.7 73.8568 188.974 79.953 179.85L24.9858 143.122ZM4.4945 210.673C4.4945 234.721 11.6255 258.229 24.9858 278.224L79.953 241.496C73.8568 232.372 70.6029 221.646 70.6029 210.673H4.4945ZM24.9858 278.224C38.3462 298.219 57.3357 313.803 79.5531 323.006L104.852 261.93C94.714 257.731 86.0492 250.62 79.953 241.496L24.9858 278.224ZM79.5531 323.006C101.77 332.209 126.218 334.617 149.804 329.925L136.907 265.087C126.144 267.228 114.989 266.129 104.852 261.93L79.5531 323.006ZM149.804 329.925C168.9 326.127 183.109 319.202 196.926 307.393L153.975 257.138C149.036 261.359 145.261 263.425 136.907 265.087L149.804 329.925ZM140.127 234.78C137.473 236.326 134.569 237.431 131.526 238.037L144.423 302.875C154.678 300.835 164.464 297.11 173.403 291.903L140.127 234.78ZM131.526 238.037C126.114 239.113 120.504 238.561 115.406 236.449L90.1076 297.525C107.285 304.64 126.187 306.502 144.423 302.875L131.526 238.037ZM115.406 236.449C110.308 234.337 105.951 230.761 102.885 226.173L47.9181 262.901C58.2478 278.361 72.9299 290.41 90.1076 297.525L115.406 236.449ZM102.885 226.173C99.8196 221.585 98.1833 216.191 98.1833 210.673L32.0748 210.673C32.0748 229.266 37.5883 247.442 47.9181 262.901L102.885 226.173ZM98.1833 210.673C98.1833 205.155 99.8196 199.761 102.885 195.173L47.9181 158.445C37.5883 173.905 32.0748 192.08 32.0748 210.673L98.1833 210.673ZM102.885 195.173C105.951 190.585 110.308 187.009 115.406 184.897L90.1076 123.821C72.9299 130.936 58.2478 142.985 47.9181 158.445L102.885 195.173ZM115.406 184.897C120.504 182.786 126.114 182.233 131.526 183.31L144.423 118.471C126.187 114.844 107.285 116.706 90.1076 123.821L115.406 184.897ZM131.526 183.31C134.599 183.921 137.529 185.041 140.203 186.61L173.66 129.593C164.652 124.308 154.777 120.531 144.423 118.471L131.526 183.31ZM140.203 186.61C157.745 196.904 189.045 198.112 205.436 171.984L149.434 136.854C153.179 130.885 158.885 128.287 163.089 127.633C166.995 127.025 170.615 127.807 173.66 129.593L140.203 186.61ZM205.56 249.714C189.215 223.357 157.733 224.524 140.127 234.78L173.403 291.903C170.388 293.66 166.81 294.421 162.948 293.808C158.784 293.146 153.091 290.543 149.378 284.555L205.56 249.714ZM196.926 307.393C215.05 291.903 216.265 266.976 205.56 249.714L149.378 284.555C144.772 277.128 144.649 265.109 153.975 257.138L196.926 307.393ZM153.895 164.361C144.647 156.389 144.726 144.359 149.434 136.854L205.436 171.984C216.276 154.704 215.047 129.798 197.06 114.291L153.895 164.361Z" fill="#07011E" mask="url(#path-2-inside-1)"/>
</svg>
