<svg width="1153" height="365" viewBox="0 0 1153 365" fill="none" xmlns="http://www.w3.org/2000/svg">
<path d="M287.183 125.393H335.162V143.545H264.588V33.8809H287.183V125.393ZM406.326 143.545C405.322 141.587 404.593 139.152 404.142 136.239C398.869 142.114 392.015 145.052 383.58 145.052C375.596 145.052 368.968 142.742 363.695 138.122C358.473 133.503 355.862 127.678 355.862 120.648C355.862 112.012 359.051 105.384 365.428 100.764C371.855 96.1445 381.119 93.8096 393.22 93.7594H403.238V89.0897C403.238 85.3237 402.259 82.311 400.3 80.0514C398.392 77.7918 395.354 76.662 391.187 76.662C387.521 76.662 384.634 77.5408 382.525 79.2982C380.466 81.0556 379.437 83.4658 379.437 86.5288H357.67C357.67 81.8088 359.126 77.4403 362.038 73.4233C364.951 69.4063 369.068 66.268 374.391 64.0085C379.713 61.6987 385.688 60.5438 392.316 60.5438C402.359 60.5438 410.318 63.0795 416.193 68.151C422.118 73.1723 425.08 80.2522 425.08 89.3909V124.715C425.13 132.448 426.21 138.298 428.319 142.265V143.545H406.326ZM388.325 128.406C391.538 128.406 394.501 127.703 397.212 126.297C399.924 124.841 401.932 122.908 403.238 120.498V106.488H395.103C384.207 106.488 378.408 110.254 377.705 117.786L377.629 119.067C377.629 121.778 378.583 124.012 380.491 125.77C382.4 127.527 385.011 128.406 388.325 128.406ZM525.016 113.945L535.712 62.0502H556.726L535.938 143.545H517.71L502.27 92.253L486.83 143.545H468.678L447.89 62.0502H468.904L479.524 113.87L494.437 62.0502H510.178L525.016 113.945ZM350.677 288.016C349.824 299.815 345.455 309.105 337.572 315.884C329.739 322.662 319.395 326.052 306.54 326.052C292.481 326.052 281.409 321.332 273.325 311.892C265.291 302.401 261.274 289.396 261.274 272.876V266.173C261.274 255.628 263.132 246.339 266.847 238.305C270.563 230.271 275.86 224.12 282.74 219.852C289.669 215.534 297.703 213.375 306.842 213.375C319.495 213.375 329.688 216.764 337.421 223.543C345.154 230.321 349.623 239.837 350.828 252.088H328.232C327.68 245.008 325.696 239.887 322.282 236.723C318.918 233.51 313.771 231.903 306.842 231.903C299.31 231.903 293.661 234.614 289.895 240.037C286.179 245.41 284.271 253.771 284.171 265.119V273.404C284.171 285.254 285.953 293.916 289.518 299.389C293.134 304.862 298.808 307.598 306.54 307.598C313.52 307.598 318.717 306.017 322.131 302.853C325.596 299.64 327.579 294.694 328.082 288.016H350.677ZM373.035 283.044C373.035 274.96 374.591 267.755 377.705 261.428C380.818 255.101 385.287 250.205 391.111 246.741C396.986 243.276 403.79 241.544 411.523 241.544C422.519 241.544 431.482 244.908 438.412 251.637C445.391 258.365 449.283 267.504 450.086 279.053L450.237 284.626C450.237 297.129 446.747 307.172 439.767 314.754C432.788 322.286 423.423 326.052 411.673 326.052C399.924 326.052 390.534 322.286 383.504 314.754C376.525 307.222 373.035 296.978 373.035 284.024V283.044ZM394.802 284.626C394.802 292.359 396.258 298.284 399.171 302.401C402.083 306.469 406.25 308.502 411.673 308.502C416.946 308.502 421.063 306.494 424.026 302.477C426.988 298.41 428.47 291.932 428.47 283.044C428.47 275.462 426.988 269.588 424.026 265.42C421.063 261.252 416.896 259.168 411.523 259.168C406.2 259.168 402.083 261.252 399.171 265.42C396.258 269.537 394.802 275.939 394.802 284.626ZM496.395 243.05L497.073 252.164C502.847 245.084 510.655 241.544 520.497 241.544C530.992 241.544 538.197 245.686 542.114 253.971C547.838 245.686 555.997 241.544 566.592 241.544C575.43 241.544 582.008 244.13 586.326 249.302C590.644 254.423 592.803 262.156 592.803 272.5V324.545H570.961V272.575C570.961 267.956 570.057 264.591 568.249 262.482C566.442 260.323 563.253 259.244 558.684 259.244C552.156 259.244 547.637 262.357 545.126 268.583L545.202 324.545H523.435V272.65C523.435 267.931 522.506 264.516 520.648 262.407C518.79 260.298 515.627 259.244 511.158 259.244C504.981 259.244 500.513 261.805 497.751 266.926V324.545H475.984V243.05H496.395ZM642.351 243.05L643.029 252.164C648.803 245.084 656.611 241.544 666.453 241.544C676.947 241.544 684.153 245.686 688.07 253.971C693.794 245.686 701.953 241.544 712.548 241.544C721.386 241.544 727.963 244.13 732.282 249.302C736.6 254.423 738.759 262.156 738.759 272.5V324.545H716.917V272.575C716.917 267.956 716.013 264.591 714.205 262.482C712.398 260.323 709.209 259.244 704.64 259.244C698.112 259.244 693.593 262.357 691.082 268.583L691.158 324.545H669.39V272.65C669.39 267.931 668.462 264.516 666.604 262.407C664.746 260.298 661.582 259.244 657.114 259.244C650.937 259.244 646.468 261.805 643.707 266.926V324.545H621.94V243.05H642.351ZM816.702 316.26C811.329 322.788 803.898 326.052 794.408 326.052C785.671 326.052 778.992 323.541 774.373 318.52C769.804 313.498 767.469 306.142 767.368 296.451V243.05H789.135V295.698C789.135 304.184 793.002 308.427 800.735 308.427C808.116 308.427 813.187 305.866 815.949 300.744V243.05H837.791V324.545H817.305L816.702 316.26ZM886.586 243.05L887.264 252.465C893.089 245.184 900.897 241.544 910.688 241.544C919.325 241.544 925.752 244.08 929.97 249.151C934.188 254.222 936.347 261.805 936.447 271.897V324.545H914.68V272.425C914.68 267.805 913.676 264.466 911.667 262.407C909.659 260.298 906.32 259.244 901.65 259.244C895.524 259.244 890.929 261.855 887.866 267.077V324.545H866.099V243.05H886.586ZM988.33 324.545H966.487V243.05H988.33V324.545ZM965.207 221.961C965.207 218.697 966.286 216.011 968.446 213.902C970.655 211.793 973.643 210.738 977.408 210.738C981.124 210.738 984.087 211.793 986.296 213.902C988.505 216.011 989.61 218.697 989.61 221.961C989.61 225.275 988.48 227.986 986.221 230.095C984.011 232.204 981.074 233.259 977.408 233.259C973.743 233.259 970.78 232.204 968.521 230.095C966.311 227.986 965.207 225.275 965.207 221.961ZM1044.73 223.015V243.05H1058.67V259.018H1044.73V299.69C1044.73 302.703 1045.31 304.862 1046.46 306.167C1047.62 307.473 1049.83 308.126 1053.09 308.126C1055.5 308.126 1057.64 307.95 1059.49 307.598V324.093C1055.23 325.399 1050.83 326.052 1046.31 326.052C1031.05 326.052 1023.27 318.344 1022.96 302.929V259.018H1011.06V243.05H1022.96V223.015H1044.73ZM1113.56 293.74L1128.62 243.05H1151.97L1119.21 337.199L1117.4 341.492C1112.53 352.137 1104.5 357.46 1093.3 357.46C1090.14 357.46 1086.92 356.983 1083.66 356.028V339.534L1086.97 339.609C1091.09 339.609 1094.15 338.981 1096.16 337.726C1098.22 336.471 1099.83 334.387 1100.98 331.475L1103.54 324.771L1075 243.05H1098.42L1113.56 293.74Z" fill="white"/>
<path d="M50.6577 44.6175V234.881" stroke="white" stroke-width="27.5452" stroke-linecap="round"/>
<mask id="path-3-inside-1" fill="white">
<path d="M176.558 185.187C179.624 180.3 178.971 173.861 174.601 170.094C165.213 162.001 156.217 157.341 142.478 154.608C125.304 151.192 107.503 152.945 91.3257 159.646C75.1482 166.347 61.321 177.695 51.5927 192.254C41.8645 206.814 36.672 223.931 36.672 241.441C36.672 258.952 41.8645 276.069 51.5927 290.628C61.321 305.187 75.1482 316.535 91.3257 323.236C107.503 329.937 125.304 331.69 142.478 328.274C156.204 325.544 165.196 321.049 174.574 313.034C178.973 309.274 179.642 302.82 176.592 297.902V297.902C172.36 291.077 162.828 290.067 155.888 294.11C150.092 297.486 143.747 299.901 137.098 301.224C125.274 303.576 113.018 302.369 101.88 297.755C90.7424 293.142 81.2227 285.329 74.525 275.305C67.8273 265.281 64.2524 253.497 64.2524 241.441C64.2524 229.386 67.8273 217.601 74.525 207.577C81.2227 197.553 90.7424 189.741 101.88 185.127C113.018 180.514 125.274 179.307 137.098 181.658C143.811 182.994 150.214 185.442 156.055 188.87C162.91 192.893 172.335 191.92 176.558 185.187V185.187Z"/>
</mask>
<path d="M142.478 154.608L136.03 187.027L142.478 154.608ZM137.098 301.224L130.649 268.805L137.098 301.224ZM156.055 188.87L139.326 217.378L156.055 188.87ZM155.888 294.11L139.25 265.549L155.888 294.11ZM174.574 313.034L196.05 338.161L174.574 313.034ZM174.601 170.094L153.018 195.129L174.601 170.094ZM196.184 145.059C182.531 133.289 168.337 126.05 148.927 122.189L136.03 187.027C144.096 188.632 147.895 190.713 153.018 195.129L196.184 145.059ZM148.927 122.189C125.341 117.497 100.894 119.905 78.6764 129.108L103.975 190.184C114.113 185.985 125.268 184.886 136.03 187.027L148.927 122.189ZM78.6764 129.108C56.459 138.311 37.4695 153.895 24.1092 173.89L79.0763 210.618C85.1725 201.494 93.8373 194.383 103.975 190.184L78.6764 129.108ZM24.1092 173.89C10.7489 193.885 3.61782 217.393 3.61782 241.441H69.7263C69.7263 230.468 72.9801 219.742 79.0763 210.618L24.1092 173.89ZM3.61782 241.441C3.61782 265.489 10.7489 288.997 24.1092 308.992L79.0763 272.264C72.9801 263.141 69.7263 252.414 69.7263 241.441H3.61782ZM24.1092 308.992C37.4695 328.987 56.459 344.571 78.6764 353.774L103.975 292.698C93.8373 288.499 85.1725 281.388 79.0763 272.264L24.1092 308.992ZM78.6764 353.774C100.894 362.977 125.341 365.385 148.927 360.693L136.03 295.855C125.268 297.996 114.113 296.897 103.975 292.698L78.6764 353.774ZM148.927 360.693C168.023 356.895 182.232 349.97 196.05 338.161L153.098 287.906C148.16 292.128 144.384 294.193 136.03 295.855L148.927 360.693ZM139.25 265.549C136.596 267.094 133.693 268.199 130.649 268.805L143.546 333.643C153.802 331.603 163.587 327.879 172.526 322.671L139.25 265.549ZM130.649 268.805C125.237 269.881 119.628 269.329 114.53 267.217L89.2309 328.293C106.409 335.409 125.311 337.27 143.546 333.643L130.649 268.805ZM114.53 267.217C109.432 265.105 105.074 261.529 102.009 256.941L47.0414 293.669C57.3711 309.129 72.0532 321.178 89.2309 328.293L114.53 267.217ZM102.009 256.941C98.9429 252.353 97.3066 246.959 97.3066 241.441L31.1982 241.441C31.1982 260.034 36.7116 278.21 47.0414 293.669L102.009 256.941ZM97.3066 241.441C97.3066 235.923 98.9429 230.529 102.009 225.941L47.0414 189.213C36.7116 204.673 31.1982 222.848 31.1982 241.441L97.3066 241.441ZM102.009 225.941C105.074 221.353 109.432 217.777 114.53 215.665L89.2309 154.589C72.0532 161.704 57.3711 173.753 47.0414 189.213L102.009 225.941ZM114.53 215.665C119.628 213.554 125.237 213.001 130.649 214.078L143.546 149.239C125.311 145.612 106.409 147.474 89.2309 154.589L114.53 215.665ZM130.649 214.078C133.722 214.689 136.652 215.809 139.326 217.378L172.784 160.361C163.776 155.076 153.9 151.299 143.546 149.239L130.649 214.078ZM139.326 217.378C156.868 227.672 188.169 228.88 204.559 202.752L148.558 167.622C152.302 161.653 158.008 159.055 162.213 158.401C166.118 157.793 169.739 158.575 172.784 160.361L139.326 217.378ZM204.684 280.482C188.339 254.125 156.856 255.292 139.25 265.549L172.526 322.671C169.511 324.428 165.934 325.189 162.071 324.576C157.907 323.914 152.215 321.311 148.501 315.323L204.684 280.482ZM196.05 338.161C214.173 322.671 215.389 297.744 204.684 280.482L148.501 315.323C143.895 307.896 143.772 295.877 153.098 287.906L196.05 338.161ZM153.018 195.129C143.77 187.157 143.849 175.127 148.558 167.622L204.559 202.752C215.4 185.472 214.171 160.566 196.184 145.059L153.018 195.129Z" fill="white" mask="url(#path-3-inside-1)"/>
</svg>
