<svg width="34" height="33" viewBox="0 0 34 33" fill="none" xmlns="http://www.w3.org/2000/svg">
<path d="M31.1942 18.3304H1.83495C0.82573 18.3304 0 19.1553 0 20.1635V31.1617C0 32.1699 0.82573 32.9948 1.83495 32.9948H31.1942C32.2035 32.9948 33.0292 32.1699 33.0292 31.1617V20.1635C33.0292 19.1553 32.2035 18.3304 31.1942 18.3304ZM7.33982 29.3287C5.32137 29.3287 3.66991 27.679 3.66991 25.6626C3.66991 23.6463 5.32137 21.9965 7.33982 21.9965C9.35827 21.9965 11.0097 23.6463 11.0097 25.6626C11.0097 27.679 9.35827 29.3287 7.33982 29.3287ZM31.1942 0H1.83495C0.82573 0 0 0.82487 0 1.83304V12.8313C0 13.8395 0.82573 14.6643 1.83495 14.6643H31.1942C32.2035 14.6643 33.0292 13.8395 33.0292 12.8313V1.83304C33.0292 0.82487 32.2035 0 31.1942 0ZM7.33982 10.9983C5.32137 10.9983 3.66991 9.34852 3.66991 7.33217C3.66991 5.31583 5.32137 3.66609 7.33982 3.66609C9.35827 3.66609 11.0097 5.31583 11.0097 7.33217C11.0097 9.34852 9.35827 10.9983 7.33982 10.9983Z" fill="white"/>
</svg>
