<svg width="44" height="44" viewBox="0 0 44 44" fill="none" xmlns="http://www.w3.org/2000/svg">
<path d="M38.5013 44H22.0013C21.5151 44 21.0488 43.8068 20.7049 43.463C20.3611 43.1192 20.168 42.6529 20.168 42.1667V38.5C20.168 38.0138 20.3611 37.5474 20.7049 37.2036C21.0488 36.8598 21.5151 36.6667 22.0013 36.6667H38.5013C38.9875 36.6667 39.4539 36.8598 39.7977 37.2036C40.1415 37.5474 40.3346 38.0138 40.3346 38.5V42.1667C40.3346 42.6529 40.1415 43.1192 39.7977 43.463C39.4539 43.8068 38.9875 44 38.5013 44Z" fill="white"/>
<path d="M38.5013 0H5.5013C5.01507 0 4.54875 0.193153 4.20494 0.53697C3.86112 0.880786 3.66797 1.3471 3.66797 1.83333V5.5C3.66797 5.98623 3.86112 6.45255 4.20494 6.79636C4.54875 7.14018 5.01507 7.33333 5.5013 7.33333H38.5013C38.9875 7.33333 39.4538 7.14018 39.7977 6.79636C40.1415 6.45255 40.3346 5.98623 40.3346 5.5V1.83333C40.3346 1.3471 40.1415 0.880786 39.7977 0.53697C39.4538 0.193153 38.9875 0 38.5013 0Z" fill="#8C30F5"/>
<path d="M38.5013 11H5.5013C5.01507 11 4.54875 11.1932 4.20494 11.537C3.86112 11.8808 3.66797 12.3471 3.66797 12.8333V31.1667C3.66797 31.6529 3.86112 32.1192 4.20494 32.463C4.54875 32.8068 5.01507 33 5.5013 33H38.5013C38.9875 33 39.4538 32.8068 39.7977 32.463C40.1415 32.1192 40.3346 31.6529 40.3346 31.1667V12.8333C40.3346 12.3471 40.1415 11.8808 39.7977 11.537C39.4538 11.1932 38.9875 11 38.5013 11Z" fill="#FF4952"/>
</svg>
