<svg width="31" height="35" viewBox="0 0 31 35" fill="none" xmlns="http://www.w3.org/2000/svg">
<path d="M23.7365 15.997L7.06986 16.0458L7.07964 19.3791L23.7462 19.3303L23.7365 15.997ZM27.0356 4.32057L25.3689 4.32546L25.3591 0.992142L22.0258 1.00191L22.0356 4.33523L8.70232 4.37432L8.69255 1.041L5.35923 1.05077L5.369 4.38409L3.70234 4.38898C1.85235 4.3944 0.390088 5.89869 0.395463 7.73202L0.447198 31.0653C0.452573 32.8986 1.9403 34.3943 3.79029 34.3888L27.1235 34.3204C28.9568 34.3151 30.4524 32.8107 30.4471 30.9774L30.3787 7.64412C30.3733 5.8108 28.8689 4.3152 27.0356 4.32057ZM27.1137 30.9871L3.78052 31.0555L3.72677 12.7223L27.06 12.6539L27.1137 30.9871ZM18.756 22.6783L7.08941 22.7125L7.09918 26.0458L18.7658 26.0116L18.756 22.6783Z" fill="white"/>
</svg>
