<svg width="30" height="30" viewBox="0 0 30 30" fill="none" xmlns="http://www.w3.org/2000/svg">
<path fill-rule="evenodd" clip-rule="evenodd" d="M15 30C23.2843 30 30 23.2843 30 15C30 6.71573 23.2843 0 15 0C6.71573 0 0 6.71573 0 15C0 23.2843 6.71573 30 15 30ZM20.8692 10.6549C21.2309 10.2376 21.1858 9.60602 20.7684 9.24431C20.3511 8.8826 19.7195 8.92771 19.3578 9.34507C18.9588 9.80547 18.5409 10.2355 18.1006 10.6884C17.9762 10.8164 17.85 10.9462 17.722 11.0791C17.1535 11.6689 16.5644 12.3031 16.0355 13.0211C15.1329 14.2466 14.3277 15.5465 13.551 16.8004L13.551 16.8005C13.4571 16.952 13.3637 17.1029 13.2706 17.2529C13.0018 17.6856 12.8913 17.8649 12.7752 18.0614C12.6011 17.8351 12.4302 17.6061 12.2912 17.4183L12.1662 17.2489C12.0768 17.1276 12.0023 17.0266 11.9721 16.9885C11.2365 16.0607 10.5096 15.1272 9.79766 14.1856C9.46457 13.7451 8.83743 13.658 8.39689 13.9911C7.95636 14.3242 7.86925 14.9513 8.20234 15.3919C8.9256 16.3484 9.66221 17.2943 10.405 18.2311L10.404 18.2298L10.4241 18.2567L10.486 18.3403L10.5303 18.4004C10.574 18.4597 10.6261 18.5304 10.6836 18.6081C10.841 18.8207 11.0443 19.093 11.2509 19.3597C11.4541 19.6221 11.674 19.8966 11.8619 20.1057C11.9518 20.2057 12.0602 20.32 12.1709 20.4133C12.2216 20.456 12.315 20.5308 12.4369 20.5924L12.4402 20.5941C12.5015 20.6254 12.9099 20.8336 13.3746 20.6064C13.7621 20.417 13.9447 20.0932 14.0201 19.9465C14.0544 19.8799 14.0859 19.8091 14.1033 19.7702L14.1101 19.755C14.1272 19.7168 14.133 19.7057 14.133 19.7056L14.2702 19.4685C14.5387 19.0044 14.5611 18.9656 14.9695 18.3081C15.0631 18.1575 15.1561 18.0073 15.2489 17.8575L15.2501 17.8556C16.0325 16.5928 16.794 15.3637 17.6459 14.2072C18.0927 13.6005 18.6054 13.0445 19.1621 12.4669C19.276 12.3488 19.3926 12.2288 19.5109 12.1071L19.5125 12.1055C19.9587 11.6466 20.4289 11.1629 20.8692 10.6549Z" fill="white"/>
</svg>
