<svg width="22" height="20" viewBox="0 0 22 20" fill="none" xmlns="http://www.w3.org/2000/svg">
<path d="M10.551 0C4.77255 0 0.0932617 4.48 0.0932617 10C0.0932617 15.52 4.77255 20 10.551 20C16.3399 20 21.0297 15.52 21.0297 10C21.0297 4.48 16.3399 0 10.551 0ZM10.5615 18C5.93452 18 2.1869 14.42 2.1869 10C2.1869 5.58 5.93452 2 10.5615 2C15.1884 2 18.936 5.58 18.936 10C18.936 14.42 15.1884 18 10.5615 18Z" fill="white"/>
<path d="M11.0849 5.78511C11.0849 5.35151 10.7334 5 10.2998 5V5C9.86616 5 9.51465 5.35151 9.51465 5.78511V10.4206C9.51465 10.7789 9.70644 11.1099 10.0174 11.2881L14.4091 13.8053C14.7458 13.9983 15.1746 13.8928 15.3834 13.5658V13.5658C15.6074 13.2147 15.4914 12.7476 15.1291 12.5422L11.5918 10.5373C11.2785 10.3597 11.0849 10.0274 11.0849 9.66734V5.78511Z" fill="white"/>
</svg>
