<svg width="55" height="54" viewBox="0 0 55 54" fill="none" xmlns="http://www.w3.org/2000/svg">
<path fill-rule="evenodd" clip-rule="evenodd" d="M20.5 19C24.9183 19 28.5 15.4183 28.5 11C28.5 6.58172 24.9183 3 20.5 3C16.0817 3 12.5 6.58172 12.5 11C12.5 15.4183 16.0817 19 20.5 19ZM20.5 22C26.5751 22 31.5 17.0751 31.5 11C31.5 4.92487 26.5751 0 20.5 0C14.4249 0 9.5 4.92487 9.5 11C9.5 17.0751 14.4249 22 20.5 22ZM0 39C0 32.0964 5.59644 26.5 12.5 26.5H31V29.5H12.5C7.25329 29.5 3 33.7533 3 39V43.5H21.5V46.5H1.5H0V45V39ZM30.5 40.6934V50H51.5V40.0873L42.3141 45.6546C41.1991 46.3303 39.8009 46.3303 38.6859 45.6546L30.5 40.6934ZM45.8559 40H35.1441L40.2408 43.089C40.4001 43.1855 40.5999 43.1855 40.7592 43.089L45.8559 40ZM26.5 37C26.5 36.4477 26.9477 36 27.5 36H34.6V35C34.6 33.067 36.167 31.5 38.1 31.5H42.9C44.833 31.5 46.4 33.067 46.4 35V36H53.5C54.0523 36 54.5 36.4477 54.5 37V40V50V53C54.5 53.5523 54.0523 54 53.5 54H27.5C26.9477 54 26.5 53.5523 26.5 53V37ZM37.6 35V36H43.4V35C43.4 34.7239 43.1761 34.5 42.9 34.5H38.1C37.8239 34.5 37.6 34.7239 37.6 35Z" fill="white"/>
</svg>
