<svg width="49" height="49" viewBox="0 0 49 49" fill="none" xmlns="http://www.w3.org/2000/svg">
<path d="M17.697 20.2421H2.21212C1.62543 20.2421 1.06277 20.009 0.647914 19.5942C0.23306 19.1793 0 18.6167 0 18.03V2.54513C0 1.95844 0.23306 1.39577 0.647914 0.980921C1.06277 0.566068 1.62543 0.333008 2.21212 0.333008H17.697C18.2837 0.333008 18.8463 0.566068 19.2612 0.980921C19.676 1.39577 19.9091 1.95844 19.9091 2.54513V18.03C19.9091 18.6167 19.676 19.1793 19.2612 19.5942C18.8463 20.009 18.2837 20.2421 17.697 20.2421Z" fill="#FF4952"/>
<path d="M17.697 48.9997H2.21212C1.62543 48.9997 1.06277 48.7666 0.647914 48.3518C0.23306 47.9369 0 47.3743 0 46.7876V31.3027C0 30.716 0.23306 30.1534 0.647914 29.7385C1.06277 29.3237 1.62543 29.0906 2.21212 29.0906H17.697C18.2837 29.0906 18.8463 29.3237 19.2612 29.7385C19.676 30.1534 19.9091 30.716 19.9091 31.3027V46.7876C19.9091 47.3743 19.676 47.9369 19.2612 48.3518C18.8463 48.7666 18.2837 48.9997 17.697 48.9997Z" fill="#FF4952"/>
<path d="M26.5469 2.54515H48.6681V6.96939H26.5469V2.54515Z" fill="white"/>
<path d="M48.6681 31.3027H26.5469V35.7269H48.6681V31.3027Z" fill="white"/>
<path d="M48.6681 42.3633H26.5469V46.7876H48.6681V42.3633Z" fill="#8C30F5"/>
<path d="M48.6681 13.6057H26.5469V18.03H48.6681V13.6057Z" fill="#8C30F5"/>
</svg>
