<svg width="31" height="29" viewBox="0 0 31 29" fill="none" xmlns="http://www.w3.org/2000/svg">
<path d="M27.8911 6.43902L17.5412 6.46937L22.0144 1.96987L21.057 1.00449L15.6185 6.475L10.148 1.03647L9.18261 2.00749L13.6957 6.48064L3.34579 6.51098C1.8458 6.51538 0.622087 7.73261 0.626524 9.24624L0.674494 25.6098C0.678892 27.1098 1.90976 28.3335 3.40975 28.3291L27.9551 28.2571C29.4551 28.2527 30.6788 27.0218 30.6744 25.5219L30.6264 9.15829C30.622 7.64466 29.3911 6.43463 27.8911 6.43902ZM27.9471 25.5299L3.40176 25.6018L3.35379 9.23824L27.8991 9.16629L27.9471 25.5299ZM11.5436 11.9415L11.5755 22.8506L21.105 17.3681L11.5436 11.9415Z" fill="white"/>
</svg>
