<svg width="37" height="19" viewBox="0 0 37 19" fill="none" xmlns="http://www.w3.org/2000/svg">
<path d="M18.6412 10.8134C21.0862 10.8062 23.2479 11.3849 25.0051 12.1447C26.6272 12.86 27.652 14.477 27.6571 16.232L27.6642 18.662L9.6643 18.7148L9.65722 16.2998C9.65203 14.5298 10.6673 12.9068 12.2852 12.197C14.0379 11.4119 16.1962 10.8206 18.6412 10.8134ZM6.64233 11.2236C8.29232 11.2187 9.63836 9.86479 9.63352 8.2148C9.62868 6.5648 8.27473 5.21877 6.62474 5.2236C4.97475 5.22844 3.62871 6.58239 3.63355 8.23238C3.63838 9.88238 4.99233 11.2284 6.64233 11.2236ZM8.34216 12.8686C7.7869 12.7802 7.23172 12.7219 6.64672 12.7236C5.16173 12.7279 3.75266 13.0471 2.47929 13.6058C1.3707 14.089 0.653874 15.1711 0.657436 16.3861L0.66434 18.7411L7.41431 18.7213L7.40723 16.3064C7.40358 15.0614 7.74515 13.8904 8.34216 12.8686ZM30.6422 11.1532C32.2922 11.1484 33.6383 9.79443 33.6334 8.14444C33.6286 6.49445 32.2746 5.14841 30.6246 5.15325C28.9746 5.15808 27.6286 6.51203 27.6334 8.16203C27.6383 9.81202 28.9922 11.1581 30.6422 11.1532ZM36.6573 16.2806C36.6537 15.0656 35.9306 13.9877 34.8192 13.511C33.5425 12.9597 32.1316 12.6489 30.6466 12.6532C30.0616 12.6549 29.5068 12.7166 28.9521 12.8082C29.5551 13.8264 29.9035 14.9954 29.9071 16.2404L29.9142 18.6554L36.6642 18.6356L36.6573 16.2806ZM18.6115 0.688444C21.1015 0.681144 23.1174 2.68524 23.1247 5.17523C23.132 7.66522 21.1279 9.68111 18.6379 9.68841C16.1479 9.6957 14.132 7.69161 14.1247 5.20162C14.1174 2.71163 16.1215 0.695743 18.6115 0.688444Z" fill="white"/>
</svg>
