<svg width="32" height="32" viewBox="0 0 32 32" fill="none" xmlns="http://www.w3.org/2000/svg">
<path d="M30.2222 17.7778H1.77778C0.8 17.7778 0 18.5778 0 19.5556V30.2222C0 31.2 0.8 32 1.77778 32H30.2222C31.2 32 32 31.2 32 30.2222V19.5556C32 18.5778 31.2 17.7778 30.2222 17.7778ZM7.11111 28.4444C5.15556 28.4444 3.55556 26.8444 3.55556 24.8889C3.55556 22.9333 5.15556 21.3333 7.11111 21.3333C9.06667 21.3333 10.6667 22.9333 10.6667 24.8889C10.6667 26.8444 9.06667 28.4444 7.11111 28.4444ZM30.2222 0H1.77778C0.8 0 0 0.8 0 1.77778V12.4444C0 13.4222 0.8 14.2222 1.77778 14.2222H30.2222C31.2 14.2222 32 13.4222 32 12.4444V1.77778C32 0.8 31.2 0 30.2222 0ZM7.11111 10.6667C5.15556 10.6667 3.55556 9.06667 3.55556 7.11111C3.55556 5.15556 5.15556 3.55556 7.11111 3.55556C9.06667 3.55556 10.6667 5.15556 10.6667 7.11111C10.6667 9.06667 9.06667 10.6667 7.11111 10.6667Z" fill="white"/>
</svg>
