<svg width="35" height="35" viewBox="0 0 35 35" fill="none" xmlns="http://www.w3.org/2000/svg">
<path d="M34.8641 5.49913V9.16522H29.3593V14.6643H25.6894V9.16522H20.1845V5.49913H25.6894V0H29.3593V5.49913H34.8641ZM29.3593 31.1617H3.66991V5.49913H14.6796V1.83304H3.66991C1.65146 1.83304 0 3.48278 0 5.49913V31.1617C0 33.1781 1.65146 34.8278 3.66991 34.8278H29.3593C31.3777 34.8278 33.0292 33.1781 33.0292 31.1617V20.1635H29.3593V31.1617ZM22.0195 20.1635V27.4956H25.6894V20.1635H22.0195ZM14.6796 27.4956H18.3495V12.8313H14.6796V27.4956ZM11.0097 27.4956V16.4974H7.33982V27.4956H11.0097Z" fill="white"/>
</svg>
